<svg width="262" height="57" viewBox="0 0 262 57" fill="none" xmlns="http://www.w3.org/2000/svg">
<path d="M0 20C0 8.9543 8.9543 0 20 0H242C253.046 0 262 8.95431 262 20V37C262 48.0457 253.046 57 242 57H20C8.95431 57 0 48.0457 0 37V20Z" fill="#251751"/>
<path d="M29.0343 37.8164C29.0343 37.9336 28.8952 38.0273 28.7198 38.0273C28.5202 38.0449 28.381 37.9512 28.381 37.8164C28.381 37.6992 28.5202 37.6055 28.6956 37.6055C28.877 37.5879 29.0343 37.6816 29.0343 37.8164ZM27.1532 37.5527C27.1109 37.6699 27.2319 37.8047 27.4133 37.8398C27.5706 37.8984 27.752 37.8398 27.7883 37.7227C27.8246 37.6055 27.7097 37.4707 27.5282 37.418C27.371 37.377 27.1956 37.4355 27.1532 37.5527ZM29.8266 37.4531C29.6512 37.4941 29.5302 37.6055 29.5484 37.7402C29.5665 37.8574 29.7238 37.9336 29.9052 37.8926C30.0806 37.8516 30.2016 37.7402 30.1835 37.623C30.1653 37.5117 30.002 37.4355 29.8266 37.4531ZM33.8065 15C25.4173 15 19 21.1699 19 29.2969C19 35.7949 23.2218 41.3555 29.252 43.3125C30.0262 43.4473 30.2984 42.9844 30.2984 42.6035C30.2984 42.2402 30.2802 40.2363 30.2802 39.0059C30.2802 39.0059 26.0464 39.8848 25.1573 37.2598C25.1573 37.2598 24.4677 35.5547 23.4758 35.1152C23.4758 35.1152 22.0907 34.1953 23.5726 34.2129C23.5726 34.2129 25.0786 34.3301 25.9073 35.7246C27.2319 37.9863 29.4516 37.3359 30.3165 36.9492C30.4556 36.0117 30.8488 35.3613 31.2843 34.9746C27.9032 34.6113 24.4919 34.1367 24.4919 28.5C24.4919 26.8887 24.9516 26.0801 25.9194 25.0488C25.7621 24.668 25.248 23.0977 26.0766 21.0703C27.3407 20.6895 30.25 22.6523 30.25 22.6523C31.4597 22.3242 32.7601 22.1543 34.0484 22.1543C35.3367 22.1543 36.6371 22.3242 37.8468 22.6523C37.8468 22.6523 40.756 20.6836 42.0202 21.0703C42.8488 23.1035 42.3347 24.668 42.1774 25.0488C43.1452 26.0859 43.7379 26.8945 43.7379 28.5C43.7379 34.1543 40.1754 34.6055 36.7944 34.9746C37.3508 35.4375 37.8226 36.3164 37.8226 37.6934C37.8226 39.668 37.8044 42.1113 37.8044 42.5918C37.8044 42.9727 38.0827 43.4355 38.8508 43.3008C44.8992 41.3555 49 35.7949 49 29.2969C49 21.1699 42.1956 15 33.8065 15ZM24.879 35.209C24.8004 35.2676 24.8185 35.4023 24.9214 35.5137C25.0181 35.6074 25.1573 35.6484 25.2359 35.5723C25.3145 35.5137 25.2964 35.3789 25.1935 35.2676C25.0968 35.1738 24.9577 35.1328 24.879 35.209ZM24.2258 34.7344C24.1835 34.8105 24.244 34.9043 24.3649 34.9629C24.4617 35.0215 24.5827 35.0039 24.625 34.9219C24.6673 34.8457 24.6069 34.752 24.4859 34.6934C24.3649 34.6582 24.2681 34.6758 24.2258 34.7344ZM26.1855 36.8203C26.0887 36.8965 26.125 37.0723 26.2641 37.1836C26.4032 37.3184 26.5786 37.3359 26.6573 37.2422C26.7359 37.166 26.6996 36.9902 26.5786 36.8789C26.4456 36.7441 26.2641 36.7266 26.1855 36.8203ZM25.496 35.959C25.3992 36.0176 25.3992 36.1699 25.496 36.3047C25.5927 36.4395 25.756 36.498 25.8347 36.4395C25.9315 36.3633 25.9315 36.2109 25.8347 36.0762C25.75 35.9414 25.5927 35.8828 25.496 35.959Z" fill="black"/>
<path d="M78.6321 38.3068C77.4048 38.3068 76.3214 37.9968 75.3817 37.3768C74.4421 36.7504 73.707 35.8683 73.1765 34.7305C72.646 33.5863 72.3807 32.2344 72.3807 30.6747C72.3807 29.1278 72.646 27.7855 73.1765 26.6477C73.707 25.5099 74.4453 24.631 75.3913 24.011C76.3374 23.391 77.4304 23.081 78.6705 23.081C79.6293 23.081 80.3867 23.2408 80.9428 23.5604C81.5053 23.8736 81.9336 24.2315 82.2276 24.6342C82.5281 25.0305 82.7614 25.3565 82.9276 25.6122H83.1193V18.3636H85.3821V38H83.196V35.7372H82.9276C82.7614 36.0057 82.5249 36.3445 82.218 36.7536C81.9112 37.1562 81.4734 37.5174 80.9045 37.837C80.3356 38.1502 79.5781 38.3068 78.6321 38.3068ZM78.9389 36.2741C79.8466 36.2741 80.6136 36.0376 81.2401 35.5646C81.8665 35.0852 82.3427 34.4237 82.6687 33.5799C82.9947 32.7298 83.1577 31.7486 83.1577 30.6364C83.1577 29.5369 82.9979 28.5749 82.6783 27.7504C82.3587 26.9194 81.8857 26.2738 81.2592 25.8136C80.6328 25.3469 79.8594 25.1136 78.9389 25.1136C77.9801 25.1136 77.1811 25.3597 76.5419 25.8519C75.9091 26.3377 75.4329 26.9993 75.1133 27.8366C74.8001 28.6676 74.6435 29.6009 74.6435 30.6364C74.6435 31.6847 74.8033 32.6371 75.1229 33.4936C75.4489 34.3437 75.9283 35.0213 76.5611 35.5263C77.2003 36.0249 77.9929 36.2741 78.9389 36.2741ZM95.8235 38.3068C94.494 38.3068 93.3274 37.9904 92.3239 37.3576C91.3267 36.7248 90.5469 35.8395 89.9844 34.7017C89.4283 33.5639 89.1502 32.2344 89.1502 30.7131C89.1502 29.179 89.4283 27.8398 89.9844 26.6957C90.5469 25.5515 91.3267 24.663 92.3239 24.0302C93.3274 23.3974 94.494 23.081 95.8235 23.081C97.1531 23.081 98.3164 23.3974 99.3136 24.0302C100.317 24.663 101.097 25.5515 101.653 26.6957C102.216 27.8398 102.497 29.179 102.497 30.7131C102.497 32.2344 102.216 33.5639 101.653 34.7017C101.097 35.8395 100.317 36.7248 99.3136 37.3576C98.3164 37.9904 97.1531 38.3068 95.8235 38.3068ZM95.8235 36.2741C96.8335 36.2741 97.6644 36.0153 98.3164 35.4975C98.9684 34.9798 99.451 34.299 99.7642 33.4553C100.077 32.6115 100.234 31.6974 100.234 30.7131C100.234 29.7287 100.077 28.8114 99.7642 27.9613C99.451 27.1112 98.9684 26.424 98.3164 25.8999C97.6644 25.3757 96.8335 25.1136 95.8235 25.1136C94.8136 25.1136 93.9826 25.3757 93.3306 25.8999C92.6786 26.424 92.196 27.1112 91.8828 27.9613C91.5696 28.8114 91.413 29.7287 91.413 30.7131C91.413 31.6974 91.5696 32.6115 91.8828 33.4553C92.196 34.299 92.6786 34.9798 93.3306 35.4975C93.9826 36.0153 94.8136 36.2741 95.8235 36.2741ZM108.787 38L104.299 23.2727H106.677L109.86 34.5483H110.014L113.159 23.2727H115.575L118.681 34.5099H118.835L122.018 23.2727H124.396L119.909 38H117.684L114.463 26.6861H114.233L111.011 38H108.787ZM129.65 29.1406V38H127.387V23.2727H129.574V25.5739H129.765C130.11 24.826 130.635 24.2251 131.338 23.7713C132.041 23.3111 132.949 23.081 134.061 23.081C135.058 23.081 135.93 23.2855 136.678 23.6946C137.426 24.0973 138.008 24.7109 138.423 25.5355C138.839 26.3537 139.047 27.3892 139.047 28.642V38H136.784V28.7955C136.784 27.6385 136.483 26.7372 135.882 26.0916C135.282 25.4396 134.457 25.1136 133.409 25.1136C132.686 25.1136 132.041 25.2702 131.472 25.5835C130.909 25.8967 130.465 26.3537 130.139 26.9545C129.813 27.5554 129.65 28.2841 129.65 29.1406ZM145.444 18.3636V38H143.181V18.3636H145.444ZM155.572 38.3068C154.242 38.3068 153.075 37.9904 152.072 37.3576C151.075 36.7248 150.295 35.8395 149.732 34.7017C149.176 33.5639 148.898 32.2344 148.898 30.7131C148.898 29.179 149.176 27.8398 149.732 26.6957C150.295 25.5515 151.075 24.663 152.072 24.0302C153.075 23.3974 154.242 23.081 155.572 23.081C156.901 23.081 158.064 23.3974 159.062 24.0302C160.065 24.663 160.845 25.5515 161.401 26.6957C161.964 27.8398 162.245 29.179 162.245 30.7131C162.245 32.2344 161.964 33.5639 161.401 34.7017C160.845 35.8395 160.065 36.7248 159.062 37.3576C158.064 37.9904 156.901 38.3068 155.572 38.3068ZM155.572 36.2741C156.581 36.2741 157.412 36.0153 158.064 35.4975C158.716 34.9798 159.199 34.299 159.512 33.4553C159.825 32.6115 159.982 31.6974 159.982 30.7131C159.982 29.7287 159.825 28.8114 159.512 27.9613C159.199 27.1112 158.716 26.424 158.064 25.8999C157.412 25.3757 156.581 25.1136 155.572 25.1136C154.562 25.1136 153.731 25.3757 153.079 25.8999C152.427 26.424 151.944 27.1112 151.631 27.9613C151.318 28.8114 151.161 29.7287 151.161 30.7131C151.161 31.6974 151.318 32.6115 151.631 33.4553C151.944 34.299 152.427 34.9798 153.079 35.4975C153.731 36.0153 154.562 36.2741 155.572 36.2741ZM170.033 38.3452C169.1 38.3452 168.253 38.1694 167.492 37.8178C166.731 37.4599 166.127 36.9453 165.68 36.2741C165.232 35.5966 165.009 34.7784 165.009 33.8196C165.009 32.9759 165.175 32.2919 165.507 31.7678C165.84 31.2372 166.284 30.8217 166.84 30.5213C167.396 30.2209 168.01 29.9972 168.681 29.8501C169.358 29.6967 170.039 29.5753 170.723 29.4858C171.618 29.3707 172.343 29.2844 172.9 29.2269C173.462 29.163 173.871 29.0575 174.127 28.9105C174.389 28.7635 174.52 28.5078 174.52 28.1435V28.0668C174.52 27.1207 174.261 26.3857 173.743 25.8615C173.232 25.3374 172.455 25.0753 171.413 25.0753C170.333 25.0753 169.486 25.3118 168.873 25.7848C168.259 26.2578 167.828 26.7628 167.578 27.2997L165.43 26.5327C165.814 25.6378 166.325 24.9411 166.965 24.4425C167.61 23.9375 168.313 23.5859 169.074 23.3878C169.841 23.1832 170.595 23.081 171.337 23.081C171.81 23.081 172.353 23.1385 172.967 23.2536C173.587 23.3622 174.184 23.5891 174.76 23.9343C175.341 24.2795 175.824 24.8004 176.207 25.4972C176.591 26.1939 176.783 27.1271 176.783 28.2969V38H174.52V36.0057H174.405C174.252 36.3253 173.996 36.6673 173.638 37.0316C173.28 37.396 172.804 37.706 172.209 37.9616C171.615 38.2173 170.889 38.3452 170.033 38.3452ZM170.378 36.3125C171.273 36.3125 172.027 36.1367 172.641 35.7852C173.261 35.4336 173.727 34.9798 174.041 34.4237C174.36 33.8675 174.52 33.2827 174.52 32.669V30.598C174.424 30.7131 174.213 30.8185 173.887 30.9144C173.568 31.0039 173.197 31.0838 172.775 31.1541C172.359 31.218 171.954 31.2756 171.557 31.3267C171.167 31.3714 170.851 31.4098 170.608 31.4418C170.02 31.5185 169.47 31.6431 168.959 31.8157C168.454 31.9819 168.045 32.2344 167.732 32.5732C167.425 32.9055 167.271 33.3594 167.271 33.9347C167.271 34.7209 167.562 35.3153 168.144 35.718C168.732 36.1143 169.477 36.3125 170.378 36.3125ZM186.474 38.3068C185.247 38.3068 184.163 37.9968 183.224 37.3768C182.284 36.7504 181.549 35.8683 181.018 34.7305C180.488 33.5863 180.222 32.2344 180.222 30.6747C180.222 29.1278 180.488 27.7855 181.018 26.6477C181.549 25.5099 182.287 24.631 183.233 24.011C184.179 23.391 185.272 23.081 186.512 23.081C187.471 23.081 188.229 23.2408 188.785 23.5604C189.347 23.8736 189.775 24.2315 190.069 24.6342C190.37 25.0305 190.603 25.3565 190.769 25.6122H190.961V18.3636H193.224V38H191.038V35.7372H190.769C190.603 36.0057 190.367 36.3445 190.06 36.7536C189.753 37.1562 189.315 37.5174 188.746 37.837C188.177 38.1502 187.42 38.3068 186.474 38.3068ZM186.781 36.2741C187.688 36.2741 188.455 36.0376 189.082 35.5646C189.708 35.0852 190.184 34.4237 190.51 33.5799C190.836 32.7298 190.999 31.7486 190.999 30.6364C190.999 29.5369 190.84 28.5749 190.52 27.7504C190.2 26.9194 189.727 26.2738 189.101 25.8136C188.475 25.3469 187.701 25.1136 186.781 25.1136C185.822 25.1136 185.023 25.3597 184.384 25.8519C183.751 26.3377 183.275 26.9993 182.955 27.8366C182.642 28.6676 182.485 29.6009 182.485 30.6364C182.485 31.6847 182.645 32.6371 182.965 33.4936C183.291 34.3437 183.77 35.0213 184.403 35.5263C185.042 36.0249 185.835 36.2741 186.781 36.2741ZM209.61 38.3452C208.677 38.3452 207.83 38.1694 207.069 37.8178C206.308 37.4599 205.704 36.9453 205.257 36.2741C204.809 35.5966 204.586 34.7784 204.586 33.8196C204.586 32.9759 204.752 32.2919 205.084 31.7678C205.417 31.2372 205.861 30.8217 206.417 30.5213C206.973 30.2209 207.587 29.9972 208.258 29.8501C208.936 29.6967 209.616 29.5753 210.3 29.4858C211.195 29.3707 211.921 29.2844 212.477 29.2269C213.039 29.163 213.448 29.0575 213.704 28.9105C213.966 28.7635 214.097 28.5078 214.097 28.1435V28.0668C214.097 27.1207 213.838 26.3857 213.32 25.8615C212.809 25.3374 212.032 25.0753 210.991 25.0753C209.91 25.0753 209.063 25.3118 208.45 25.7848C207.836 26.2578 207.405 26.7628 207.155 27.2997L205.008 26.5327C205.391 25.6378 205.903 24.9411 206.542 24.4425C207.187 23.9375 207.89 23.5859 208.651 23.3878C209.418 23.1832 210.172 23.081 210.914 23.081C211.387 23.081 211.93 23.1385 212.544 23.2536C213.164 23.3622 213.762 23.5891 214.337 23.9343C214.919 24.2795 215.401 24.8004 215.785 25.4972C216.168 26.1939 216.36 27.1271 216.36 28.2969V38H214.097V36.0057H213.982C213.829 36.3253 213.573 36.6673 213.215 37.0316C212.857 37.396 212.381 37.706 211.786 37.9616C211.192 38.2173 210.466 38.3452 209.61 38.3452ZM209.955 36.3125C210.85 36.3125 211.604 36.1367 212.218 35.7852C212.838 35.4336 213.305 34.9798 213.618 34.4237C213.937 33.8675 214.097 33.2827 214.097 32.669V30.598C214.001 30.7131 213.79 30.8185 213.464 30.9144C213.145 31.0039 212.774 31.0838 212.352 31.1541C211.937 31.218 211.531 31.2756 211.134 31.3267C210.744 31.3714 210.428 31.4098 210.185 31.4418C209.597 31.5185 209.047 31.6431 208.536 31.8157C208.031 31.9819 207.622 32.2344 207.309 32.5732C207.002 32.9055 206.849 33.3594 206.849 33.9347C206.849 34.7209 207.139 35.3153 207.721 35.718C208.309 36.1143 209.054 36.3125 209.955 36.3125ZM220.49 43.5227V23.2727H222.676V25.6122H222.945C223.111 25.3565 223.341 25.0305 223.635 24.6342C223.935 24.2315 224.364 23.8736 224.92 23.5604C225.482 23.2408 226.243 23.081 227.202 23.081C228.442 23.081 229.535 23.391 230.481 24.011C231.427 24.631 232.165 25.5099 232.696 26.6477C233.226 27.7855 233.491 29.1278 233.491 30.6747C233.491 32.2344 233.226 33.5863 232.696 34.7305C232.165 35.8683 231.43 36.7504 230.49 37.3768C229.551 37.9968 228.467 38.3068 227.24 38.3068C226.294 38.3068 225.536 38.1502 224.968 37.837C224.399 37.5174 223.961 37.1562 223.654 36.7536C223.347 36.3445 223.111 36.0057 222.945 35.7372H222.753V43.5227H220.49ZM222.714 30.6364C222.714 31.7486 222.877 32.7298 223.203 33.5799C223.529 34.4237 224.006 35.0852 224.632 35.5646C225.258 36.0376 226.025 36.2741 226.933 36.2741C227.879 36.2741 228.669 36.0249 229.301 35.5263C229.941 35.0213 230.42 34.3437 230.74 33.4936C231.066 32.6371 231.229 31.6847 231.229 30.6364C231.229 29.6009 231.069 28.6676 230.749 27.8366C230.436 26.9993 229.96 26.3377 229.321 25.8519C228.688 25.3597 227.892 25.1136 226.933 25.1136C226.013 25.1136 225.239 25.3469 224.613 25.8136C223.986 26.2738 223.513 26.9194 223.194 27.7504C222.874 28.5749 222.714 29.5369 222.714 30.6364ZM239.052 32.6307L239.014 29.831H239.474L245.918 23.2727H248.717L241.852 30.2145H241.66L239.052 32.6307ZM236.943 38V18.3636H239.206V38H236.943ZM246.301 38L240.548 30.7131L242.159 29.1406L249.177 38H246.301Z" fill="white"/>
</svg>
