<svg width="40" height="38" viewBox="0 0 40 38" fill="none" xmlns="http://www.w3.org/2000/svg">
<path d="M13.379 30.4219C13.379 30.5781 13.1935 30.7031 12.9597 30.7031C12.6935 30.7266 12.5081 30.6016 12.5081 30.4219C12.5081 30.2656 12.6935 30.1406 12.9274 30.1406C13.1694 30.1172 13.379 30.2422 13.379 30.4219ZM10.871 30.0703C10.8145 30.2266 10.9758 30.4062 11.2177 30.4531C11.4274 30.5312 11.6694 30.4531 11.7177 30.2969C11.7661 30.1406 11.6129 29.9609 11.371 29.8906C11.1613 29.8359 10.9274 29.9141 10.871 30.0703ZM14.4355 29.9375C14.2016 29.9922 14.0403 30.1406 14.0645 30.3203C14.0887 30.4766 14.2984 30.5781 14.5403 30.5234C14.7742 30.4688 14.9355 30.3203 14.9113 30.1641C14.8871 30.0156 14.6694 29.9141 14.4355 29.9375ZM19.7419 0C8.55645 0 0 8.22656 0 19.0625C0 27.7266 5.62903 35.1406 13.6694 37.75C14.7016 37.9297 15.0645 37.3125 15.0645 36.8047C15.0645 36.3203 15.0403 33.6484 15.0403 32.0078C15.0403 32.0078 9.39516 33.1797 8.20968 29.6797C8.20968 29.6797 7.29032 27.4062 5.96774 26.8203C5.96774 26.8203 4.12097 25.5938 6.09677 25.6172C6.09677 25.6172 8.10484 25.7734 9.20968 27.6328C10.9758 30.6484 13.9355 29.7812 15.0887 29.2656C15.2742 28.0156 15.7984 27.1484 16.379 26.6328C11.871 26.1484 7.32258 25.5156 7.32258 18C7.32258 15.8516 7.93548 14.7734 9.22581 13.3984C9.01613 12.8906 8.33064 10.7969 9.43548 8.09375C11.121 7.58594 15 10.2031 15 10.2031C16.6129 9.76563 18.3468 9.53906 20.0645 9.53906C21.7823 9.53906 23.5161 9.76563 25.129 10.2031C25.129 10.2031 29.0081 7.57812 30.6935 8.09375C31.7984 10.8047 31.1129 12.8906 30.9032 13.3984C32.1936 14.7812 32.9839 15.8594 32.9839 18C32.9839 25.5391 28.2339 26.1406 23.7258 26.6328C24.4677 27.25 25.0968 28.4219 25.0968 30.2578C25.0968 32.8906 25.0726 36.1484 25.0726 36.7891C25.0726 37.2969 25.4435 37.9141 26.4677 37.7344C34.5323 35.1406 40 27.7266 40 19.0625C40 8.22656 30.9274 0 19.7419 0ZM7.83871 26.9453C7.73387 27.0234 7.75806 27.2031 7.89516 27.3516C8.02419 27.4766 8.20968 27.5312 8.31452 27.4297C8.41935 27.3516 8.39516 27.1719 8.25806 27.0234C8.12903 26.8984 7.94355 26.8438 7.83871 26.9453ZM6.96774 26.3125C6.91129 26.4141 6.99194 26.5391 7.15323 26.6172C7.28226 26.6953 7.44355 26.6719 7.5 26.5625C7.55645 26.4609 7.47581 26.3359 7.31452 26.2578C7.15323 26.2109 7.02419 26.2344 6.96774 26.3125ZM9.58065 29.0938C9.45161 29.1953 9.5 29.4297 9.68548 29.5781C9.87097 29.7578 10.1048 29.7812 10.2097 29.6562C10.3145 29.5547 10.2661 29.3203 10.1048 29.1719C9.92742 28.9922 9.68548 28.9688 9.58065 29.0938ZM8.66129 27.9453C8.53226 28.0234 8.53226 28.2266 8.66129 28.4062C8.79032 28.5859 9.00806 28.6641 9.1129 28.5859C9.24193 28.4844 9.24193 28.2812 9.1129 28.1016C9 27.9219 8.79032 27.8438 8.66129 27.9453Z" fill="#0CC5FF"/>
</svg>
